<svg width="76" height="80" viewBox="0 0 76 80" fill="none" xmlns="http://www.w3.org/2000/svg">
<g filter="url(#filter0_d_506_4199)">
<circle cx="36" cy="36" r="20" fill="#CCCCCC"/>
<circle cx="36" cy="36" r="18" fill="#F1F1F1"/>
<mask id="mask0_506_4199" style="mask-type:alpha" maskUnits="userSpaceOnUse" x="24" y="25" width="24" height="24">
<rect x="24" y="25" width="24" height="24" fill="#D9D9D9"/>
</mask>
<g mask="url(#mask0_506_4199)">
<g clip-path="url(#clip0_506_4199)">
<path d="M44 37.2483C42.68 37.4883 40.95 37.3883 39 37.0183C37.23 36.6783 36.54 36.1683 35 36.0183C33.75 35.8983 32.07 36.2583 30 37.2483L28 29.2483C30.07 28.2583 31.75 27.8983 33 28.0183C34.54 28.1683 35.23 28.6783 37 29.0183C38.95 29.3883 40.68 29.4883 42 29.2483L44 37.2483Z" stroke="#CCCCCC" stroke-width="2" stroke-linecap="round" stroke-linejoin="round"/>
<path d="M28 29.25L32 45.25" stroke="#CCCCCC" stroke-width="2" stroke-linecap="round" stroke-linejoin="round"/>
</g>
</g>
</g>
<defs>
<filter id="filter0_d_506_4199" x="-4" y="0" width="80" height="80" filterUnits="userSpaceOnUse" color-interpolation-filters="sRGB">
<feFlood flood-opacity="0" result="BackgroundImageFix"/>
<feColorMatrix in="SourceAlpha" type="matrix" values="0 0 0 0 0 0 0 0 0 0 0 0 0 0 0 0 0 0 127 0" result="hardAlpha"/>
<feOffset dy="4"/>
<feGaussianBlur stdDeviation="10"/>
<feComposite in2="hardAlpha" operator="out"/>
<feColorMatrix type="matrix" values="0 0 0 0 0 0 0 0 0 0 0 0 0 0 0 0 0 0 0.1 0"/>
<feBlend mode="normal" in2="BackgroundImageFix" result="effect1_dropShadow_506_4199"/>
<feBlend mode="normal" in="SourceGraphic" in2="effect1_dropShadow_506_4199" result="shape"/>
</filter>
<clipPath id="clip0_506_4199">
<rect width="18" height="19.25" fill="white" transform="translate(27 27)"/>
</clipPath>
</defs>
</svg>
